<svg width="20" height="20" viewBox="0 0 20 20" fill="none" xmlns="http://www.w3.org/2000/svg">
<g id="info_filled">
<mask id="mask0_4449_3501" style="mask-type:alpha" maskUnits="userSpaceOnUse" x="0" y="0" width="20" height="20">
<rect id="Bounding box" width="20" height="20" fill="#D9D9D9"/>
</mask>
<g mask="url(#mask0_4449_3501)">
<path id="info" d="M9.16666 14.1665H10.8333V9.1665H9.16666V14.1665ZM9.99999 7.49984C10.2361 7.49984 10.434 7.41998 10.5937 7.26025C10.7535 7.10053 10.8333 6.90262 10.8333 6.6665C10.8333 6.43039 10.7535 6.23248 10.5937 6.07275C10.434 5.91303 10.2361 5.83317 9.99999 5.83317C9.76388 5.83317 9.56596 5.91303 9.40624 6.07275C9.24652 6.23248 9.16666 6.43039 9.16666 6.6665C9.16666 6.90262 9.24652 7.10053 9.40624 7.26025C9.56596 7.41998 9.76388 7.49984 9.99999 7.49984ZM9.99999 18.3332C8.84721 18.3332 7.76388 18.1144 6.74999 17.6769C5.7361 17.2394 4.85416 16.6457 4.10416 15.8957C3.35416 15.1457 2.76041 14.2637 2.32291 13.2498C1.88541 12.2359 1.66666 11.1526 1.66666 9.99984C1.66666 8.84706 1.88541 7.76373 2.32291 6.74984C2.76041 5.73595 3.35416 4.854 4.10416 4.104C4.85416 3.354 5.7361 2.76025 6.74999 2.32275C7.76388 1.88525 8.84721 1.6665 9.99999 1.6665C11.1528 1.6665 12.2361 1.88525 13.25 2.32275C14.2639 2.76025 15.1458 3.354 15.8958 4.104C16.6458 4.854 17.2396 5.73595 17.6771 6.74984C18.1146 7.76373 18.3333 8.84706 18.3333 9.99984C18.3333 11.1526 18.1146 12.2359 17.6771 13.2498C17.2396 14.2637 16.6458 15.1457 15.8958 15.8957C15.1458 16.6457 14.2639 17.2394 13.25 17.6769C12.2361 18.1144 11.1528 18.3332 9.99999 18.3332Z" fill="#3174E0"/>
</g>
</g>
</svg>
