<svg width="106" height="78" viewBox="0 0 106 78" fill="none" xmlns="http://www.w3.org/2000/svg">
<g id="Asset 43 1" clip-path="url(#clip0_1762_51194)">
<g id="Layer 7">
<g id="Group">
<g id="Group_2">
<g id="Group_3">
<g id="Group_4">
<path id="Vector" d="M2.13672 13.7729C2.45022 19.6383 4.24735 22.6821 6.20124 24.9604C9.01177 28.2375 12.4712 29.5426 17.1481 31.4636C22.6015 33.7055 27.2237 36.5343 27.2237 36.5343C27.2237 36.5343 31.846 33.7055 37.2994 31.4636C41.9763 29.5426 45.4357 28.2375 48.2462 24.9604C50.2038 22.6821 51.9973 19.6383 52.3108 13.7729H2.13672Z" fill="#F8C2B4"/>
<path id="Vector_2" d="M54.1118 3.34009H0.339844V13.773H54.1118V3.34009Z" fill="#F8C2B4"/>
</g>
<g id="Group_5">
<path id="Vector_3" d="M52.3147 60.2798C52.0012 54.4145 50.204 51.3707 48.2501 49.0924C45.4396 45.8152 41.9802 44.5102 37.3033 42.5891C31.8499 40.3473 27.2276 37.5185 27.2276 37.5185C27.2276 37.5185 22.6054 40.3473 17.152 42.5891C12.4751 44.5102 9.01568 45.8152 6.20514 49.0924C4.24761 51.3707 2.45412 54.4145 2.14062 60.2798H52.3183H52.3147Z" fill="#F8C2B4"/>
<path id="Vector_4" d="M0.34132 70.7126H54.1133V60.2798L0.34132 60.2798V70.7126Z" fill="#F8C2B4"/>
</g>
</g>
<g id="Group_6">
<g id="Group_7">
<path id="Vector_5" d="M4.21094 10.7328C4.52443 16.5982 6.32157 19.642 8.27546 21.9203C11.086 25.1974 14.5454 26.5025 19.2223 28.4235C24.6757 30.6654 29.298 33.4942 29.298 33.4942C29.298 33.4942 33.9202 30.6654 39.3736 28.4235C44.0505 26.5025 47.5099 25.1974 50.3205 21.9203C52.278 19.642 54.0715 16.5982 54.385 10.7328H4.21094Z" stroke="black" stroke-width="0.470588" stroke-miterlimit="10"/>
<path id="Vector_6" d="M56.186 0.299988H2.41406V10.7329H56.186V0.299988Z" stroke="black" stroke-width="0.470588" stroke-miterlimit="10"/>
</g>
<g id="Group_8">
<path id="Vector_7" d="M54.385 57.2397C54.0715 51.3744 52.2743 48.3306 50.3205 46.0523C47.5099 42.7751 44.0505 41.4701 39.3736 39.549C33.9202 37.3072 29.298 34.4784 29.298 34.4784C29.298 34.4784 24.6757 37.3072 19.2223 39.549C14.5454 41.4701 11.086 42.7751 8.27546 46.0523C6.31793 48.3306 4.52443 51.3744 4.21094 57.2397H54.3886H54.385Z" stroke="black" stroke-width="0.470588" stroke-miterlimit="10"/>
<path id="Vector_8" d="M2.41163 67.6726H56.1836V57.2397L2.41163 57.2397V67.6726Z" stroke="black" stroke-width="0.470588" stroke-miterlimit="10"/>
</g>
</g>
</g>
<g id="Group_9">
<path id="Vector_9" d="M31.1705 77.0592H101.736C103.02 77.0592 103.774 75.6193 103.049 74.5622L67.7621 23.331C67.1278 22.4124 65.7718 22.4124 65.1375 23.331L29.8545 74.5622C29.1255 75.6193 29.8837 77.0592 31.1668 77.0592H31.1705Z" fill="#DA1F2B"/>
<path id="Vector_10" d="M35.8074 74.3653H103.566C104.799 74.3653 105.524 72.9837 104.824 71.9704L70.9446 22.7733C70.3358 21.8911 69.0344 21.8911 68.4257 22.7733L34.5461 71.9667C33.8462 72.9801 34.5753 74.3617 35.8038 74.3617L35.8074 74.3653Z" stroke="black" stroke-width="0.470588" stroke-miterlimit="10"/>
<path id="Vector_11" d="M69.6893 65.5875C70.8811 65.5875 71.8473 64.6213 71.8473 63.4294C71.8473 62.2376 70.8811 61.2714 69.6893 61.2714C68.4974 61.2714 67.5312 62.2376 67.5312 63.4294C67.5312 64.6213 68.4974 65.5875 69.6893 65.5875Z" fill="white"/>
<path id="Vector_12" d="M69.7298 44.3571C69.7298 44.3571 69.7043 44.3571 69.6897 44.3571C69.6751 44.3571 69.6642 44.3571 69.6496 44.3571C67.7613 44.3644 67.8087 47.0218 67.8087 47.0218C67.8087 47.0218 67.8634 55.1655 68.2607 57.637C68.6143 59.8278 69.4928 59.8023 69.6897 59.7695C69.8829 59.8023 70.7614 59.8278 71.1186 57.637C71.5196 55.1655 71.5707 47.0218 71.5707 47.0218C71.5707 47.0218 71.6181 44.3644 69.7298 44.3608V44.3571Z" fill="white"/>
</g>
</g>
</g>
</g>
<defs>
<clipPath id="clip0_1762_51194">
<rect width="104.941" height="76.9416" fill="white" transform="translate(0.347656 0.117676)"/>
</clipPath>
</defs>
</svg>
