<svg xmlns="http://www.w3.org/2000/svg" width="24" height="24" viewBox="0 0 15 15" fill="none">
    <path d="M13.2941 2.75294H11.3647V2.35294C11.3647 2.15802 11.2067 2 11.0118 2C10.8168 2 10.6588 2.15802 10.6588 2.35294V2.75294H8.35294V2.35294C8.35294 2.15802 8.19492 2 8 2C7.80508 2 7.64706 2.15802 7.64706 2.35294V2.75294H5.34118V2.35294C5.34118 2.15802 5.18315 2 4.98824 2C4.79332 2 4.63529 2.15802 4.63529 2.35294V2.75294H2.70588C2.31666 2.75294 2 3.0696 2 3.45882V11.4118C2 11.801 2.31666 12.1176 2.70588 12.1176H8.23574C8.67626 13.2195 9.75452 14 11.0118 14C12.6595 14 14 12.6595 14 11.0118V3.45882C14 3.0696 13.6833 2.75294 13.2941 2.75294ZM11.0118 13.2941C9.75327 13.2941 8.72941 12.2703 8.72941 11.0118C8.72941 9.75327 9.75327 8.72941 11.0118 8.72941C12.2703 8.72941 13.2941 9.75327 13.2941 11.0118C13.2941 12.2703 12.2703 13.2941 11.0118 13.2941ZM13.2941 9.08527C12.7455 8.43638 11.926 8.02353 11.0118 8.02353C9.20732 8.02353 7.80932 9.61798 8.05038 11.4118H2.70588V5.71765H13.2941V9.08527ZM13.2941 5.01176H2.70588V3.45882H4.63529V3.85882C4.63529 4.05374 4.79332 4.21176 4.98824 4.21176C5.18315 4.21176 5.34118 4.05374 5.34118 3.85882V3.45882H7.64706V3.85882C7.64706 4.05374 7.80508 4.21176 8 4.21176C8.19492 4.21176 8.35294 4.05374 8.35294 3.85882V3.45882H10.6588V3.85882C10.6588 4.05374 10.8168 4.21176 11.0118 4.21176C11.2067 4.21176 11.3647 4.05374 11.3647 3.85882V3.45882H13.2941V5.01176Z" fill="white"/>
    <path d="M3.86075 7.22354H4.80193C4.99685 7.22354 5.15487 7.06551 5.15487 6.8706C5.15487 6.67568 4.99685 6.51765 4.80193 6.51765H3.86075C3.66584 6.51765 3.50781 6.67568 3.50781 6.8706C3.50781 7.06551 3.66584 7.22354 3.86075 7.22354Z" fill="white"/>
    <path d="M4.86075 7.22354H5.80193C5.99685 7.22354 6.15487 7.06551 6.15487 6.8706C6.15487 6.67568 5.99685 6.51765 5.80193 6.51765H4.86075C4.66584 6.51765 4.50781 6.67568 4.50781 6.8706C4.50781 7.06551 4.66584 7.22354 4.86075 7.22354Z" fill="white"/>
    <path d="M5.86075 7.22354H6.80193C6.99685 7.22354 7.15487 7.06551 7.15487 6.8706C7.15487 6.67568 6.99685 6.51765 6.80193 6.51765H5.86075C5.66584 6.51765 5.50781 6.67568 5.50781 6.8706C5.50781 7.06551 5.66584 7.22354 5.86075 7.22354Z" fill="white"/>
    <path d="M6.86075 7.22354H7.80193C7.99685 7.22354 8.15487 7.06551 8.15487 6.8706C8.15487 6.67568 7.99685 6.51765 7.80193 6.51765H6.86075C6.66584 6.51765 6.50781 6.67568 6.50781 6.8706C6.50781 7.06551 6.66584 7.22354 6.86075 7.22354Z" fill="white"/>
    <path d="M7.86075 7.22354H8.80193C8.99685 7.22354 9.15487 7.06551 9.15487 6.8706C9.15487 6.67568 8.99685 6.51765 8.80193 6.51765H7.86075C7.66584 6.51765 7.50781 6.67568 7.50781 6.8706C7.50781 7.06551 7.66584 7.22354 7.86075 7.22354Z" fill="white"/>
    <path d="M8.75138 7.22354H9.69256C9.88747 7.22354 10.0455 7.06551 10.0455 6.8706C10.0455 6.67568 9.88747 6.51765 9.69256 6.51765H8.75138C8.55646 6.51765 8.39844 6.67568 8.39844 6.8706C8.39844 7.06551 8.55646 7.22354 8.75138 7.22354Z" fill="white"/>
    <path d="M9.75138 7.22354H10.6926C10.8875 7.22354 11.0455 7.06551 11.0455 6.8706C11.0455 6.67568 10.8875 6.51765 10.6926 6.51765H9.75138C9.55646 6.51765 9.39844 6.67568 9.39844 6.8706C9.39844 7.06551 9.55646 7.22354 9.75138 7.22354Z" fill="white"/>
    <path d="M10.7514 7.22354H11.6926C11.8875 7.22354 12.0455 7.06551 12.0455 6.8706C12.0455 6.67568 11.8875 6.51765 11.6926 6.51765H10.7514C10.5565 6.51765 10.3984 6.67568 10.3984 6.8706C10.3984 7.06551 10.5565 7.22354 10.7514 7.22354Z" fill="white"/>
    <path d="M11.2006 7.22354H12.1418C12.3367 7.22354 12.4947 7.06551 12.4947 6.8706C12.4947 6.67568 12.3367 6.51765 12.1418 6.51765H11.2006C11.0057 6.51765 10.8477 6.67568 10.8477 6.8706C10.8477 7.06551 11.0057 7.22354 11.2006 7.22354Z" fill="white"/>
    <path d="M3.86075 8.72941H4.80193C4.99685 8.72941 5.15487 8.57139 5.15487 8.37647C5.15487 8.18155 4.99685 8.02353 4.80193 8.02353H3.86075C3.66584 8.02353 3.50781 8.18155 3.50781 8.37647C3.50781 8.57139 3.66584 8.72941 3.86075 8.72941Z" fill="white"/>
    <path d="M4.86075 8.72941H5.80193C5.99685 8.72941 6.15487 8.57139 6.15487 8.37647C6.15487 8.18155 5.99685 8.02353 5.80193 8.02353H4.86075C4.66584 8.02353 4.50781 8.18155 4.50781 8.37647C4.50781 8.57139 4.66584 8.72941 4.86075 8.72941Z" fill="white"/>
    <path d="M5.86075 8.72941H6.80193C6.99685 8.72941 7.15487 8.57139 7.15487 8.37647C7.15487 8.18155 6.99685 8.02353 6.80193 8.02353H5.86075C5.66584 8.02353 5.50781 8.18155 5.50781 8.37647C5.50781 8.57139 5.66584 8.72941 5.86075 8.72941Z" fill="white"/>
    <path d="M6.86075 8.72941H7.80193C7.99685 8.72941 8.15487 8.57139 8.15487 8.37647C8.15487 8.18155 7.99685 8.02353 7.80193 8.02353H6.86075C6.66584 8.02353 6.50781 8.18155 6.50781 8.37647C6.50781 8.57139 6.66584 8.72941 6.86075 8.72941Z" fill="white"/>
    <path d="M3.86075 10.2353H4.80193C4.99685 10.2353 5.15487 10.0773 5.15487 9.88236C5.15487 9.68744 4.99685 9.52942 4.80193 9.52942H3.86075C3.66584 9.52942 3.50781 9.68744 3.50781 9.88236C3.50781 10.0773 3.66584 10.2353 3.86075 10.2353Z" fill="white"/>
    <path d="M4.86075 10.2353H5.80193C5.99685 10.2353 6.15487 10.0773 6.15487 9.88236C6.15487 9.68744 5.99685 9.52942 5.80193 9.52942H4.86075C4.66584 9.52942 4.50781 9.68744 4.50781 9.88236C4.50781 10.0773 4.66584 10.2353 4.86075 10.2353Z" fill="white"/>
    <path d="M5.86075 10.2353H6.80193C6.99685 10.2353 7.15487 10.0773 7.15487 9.88236C7.15487 9.68744 6.99685 9.52942 6.80193 9.52942H5.86075C5.66584 9.52942 5.50781 9.68744 5.50781 9.88236C5.50781 10.0773 5.66584 10.2353 5.86075 10.2353Z" fill="white"/>
    <path d="M11.8591 9.80405C11.9369 9.80405 12 9.73599 12 9.65203C12 9.56807 11.9369 9.5 11.8591 9.5H10.1408C10.0631 9.5 10 9.56807 10 9.65203C10 9.73599 10.0631 9.80405 10.1408 9.80405H10.7324C10.916 9.80405 11.0726 9.93117 11.1307 10.1081H10.1408C10.0631 10.1081 10 10.1762 10 10.2601C10 10.3441 10.0631 10.4122 10.1408 10.4122H11.1307C11.0725 10.5891 10.916 10.7162 10.7324 10.7162H10.1502C10.0953 10.7162 10.0455 10.7506 10.0224 10.8044C9.99937 10.8582 10.0074 10.9215 10.0429 10.9667L11.2072 12.4464C11.235 12.4818 11.2747 12.5 11.3146 12.5C11.3468 12.5 11.3792 12.4881 11.4057 12.4638C11.465 12.4095 11.4722 12.3136 11.4219 12.2496L10.4546 11.0203H10.7324C11.0725 11.0203 11.357 10.7587 11.4224 10.4122H11.8592C11.9369 10.4122 12 10.3441 12 10.2601C12 10.1762 11.9369 10.1081 11.8592 10.1081H11.4224C11.4012 9.99582 11.357 9.89248 11.2954 9.80404H11.8591V9.80405Z" fill="white" stroke="white" stroke-width="0.1"/>
</svg>