                <svg xmlns="http://www.w3.org/2000/svg" width="33" height="32" viewBox="0 0 33 32" fill="none">
                  <mask id="mask0_3743_7464" style="mask-type:alpha" maskUnits="userSpaceOnUse" x="0" y="0" width="33"
                        height="32">
                    <rect x="0.160156" width="32" height="32" fill="#D9D9D9" />
                  </mask>
                  <g mask="url(#mask0_3743_7464)">
                    <path
                            d="M15.4931 7.22816V2.71533H16.8264V7.22816H15.4931ZM22.8213 10.2795L21.911 9.3692L25.0546 6.09997L26.0239 7.0769L22.8213 10.2795ZM24.929 16.6641V15.3307H29.4418V16.6641H24.929ZM15.4931 29.2795V24.7923H16.8264V29.2795H15.4931ZM9.54949 10.2384L6.26232 7.1025L7.26489 6.1589L10.4675 9.33583L9.54949 10.2384ZM25.0469 25.8948L21.911 22.6256L22.8136 21.7486L25.9982 24.8769L25.0469 25.8948ZM2.87769 16.6641V15.3307H7.39052V16.6641H2.87769ZM7.23925 25.8948L6.32129 24.8923L9.46489 21.7487L9.94435 22.2128L10.4495 22.6846L7.23925 25.8948ZM16.1658 22.6641C14.3156 22.6641 12.7409 22.0165 11.4418 20.7214C10.1427 19.4263 9.49309 17.8536 9.49309 16.0034C9.49309 14.1533 10.1406 12.5786 11.4358 11.2794C12.7309 9.9803 14.3035 9.33073 16.1537 9.33073C18.0039 9.33073 19.5786 9.97829 20.8777 11.2734C22.1769 12.5685 22.8264 14.1412 22.8264 15.9914C22.8264 17.8415 22.1789 19.4162 20.8838 20.7154C19.5886 22.0145 18.016 22.6641 16.1658 22.6641ZM16.1598 21.3307C17.6264 21.3307 18.882 20.8085 19.9264 19.7641C20.9709 18.7196 21.4931 17.4641 21.4931 15.9974C21.4931 14.5307 20.9709 13.2752 19.9264 12.2307C18.882 11.1863 17.6264 10.6641 16.1598 10.6641C14.6931 10.6641 13.4375 11.1863 12.3931 12.2307C11.3486 13.2752 10.8264 14.5307 10.8264 15.9974C10.8264 17.4641 11.3486 18.7196 12.3931 19.7641C13.4375 20.8085 14.6931 21.3307 16.1598 21.3307Z"
                            fill="white" />
                  </g>
                </svg>